<?xml version="1.0" encoding="UTF-8" standalone="no"?>
<!-- Created with Inkscape (http://www.inkscape.org/) -->

<svg
   xmlns:dc="http://purl.org/dc/elements/1.1/"
   xmlns:cc="http://creativecommons.org/ns#"
   xmlns:rdf="http://www.w3.org/1999/02/22-rdf-syntax-ns#"
   xmlns:svg="http://www.w3.org/2000/svg"
   xmlns="http://www.w3.org/2000/svg"
   xmlns:xlink="http://www.w3.org/1999/xlink"
   xmlns:sodipodi="http://sodipodi.sourceforge.net/DTD/sodipodi-0.dtd"
   xmlns:inkscape="http://www.inkscape.org/namespaces/inkscape"
   width="297mm"
   height="210mm"
   viewBox="0 0 1052.3622 744.09448"
   id="svg4195"
   version="1.1"
   inkscape:version="0.91 r13725"
   sodipodi:docname="cycle-Save.svg"
   enable-background="new">
  <defs
     id="defs4197">
    <linearGradient
       id="linearGradient10849"
       inkscape:collect="always">
      <stop
         id="stop10851"
         offset="0"
         style="stop-color:#db2e96;stop-opacity:0.45490196" />
      <stop
         id="stop10853"
         offset="1"
         style="stop-color:#1e00a1;stop-opacity:0.40784314" />
    </linearGradient>
    <linearGradient
       inkscape:collect="always"
       id="linearGradient10792">
      <stop
         style="stop-color:#e91815;stop-opacity:0.45303866"
         offset="0"
         id="stop10794" />
      <stop
         style="stop-color:#0e29e5;stop-opacity:0.40784314"
         offset="1"
         id="stop10796" />
    </linearGradient>
    <linearGradient
       inkscape:collect="always"
       id="linearGradient9769">
      <stop
         style="stop-color:#b03c2d;stop-opacity:0.50828731"
         offset="0"
         id="stop9771" />
      <stop
         style="stop-color:#ed2808;stop-opacity:1"
         offset="1"
         id="stop9773" />
    </linearGradient>
    <linearGradient
       inkscape:collect="always"
       id="linearGradient9720">
      <stop
         style="stop-color:#ff0500;stop-opacity:1"
         offset="0"
         id="stop9722" />
      <stop
         style="stop-color:#4d11d5;stop-opacity:0"
         offset="1"
         id="stop9724" />
    </linearGradient>
    <linearGradient
       inkscape:collect="always"
       id="linearGradient9712">
      <stop
         style="stop-color:#252348;stop-opacity:1;"
         offset="0"
         id="stop9714" />
      <stop
         style="stop-color:#061b60;stop-opacity:0.75686276"
         offset="1"
         id="stop9716" />
    </linearGradient>
    <linearGradient
       inkscape:collect="always"
       id="linearGradient4181">
      <stop
         style="stop-color:#0600ff;stop-opacity:1"
         offset="0"
         id="stop4183" />
      <stop
         style="stop-color:#dfa6a2;stop-opacity:1"
         offset="1"
         id="stop4185" />
    </linearGradient>
    <linearGradient
       inkscape:collect="always"
       id="linearGradient4157">
      <stop
         style="stop-color:#e31111;stop-opacity:1;"
         offset="0"
         id="stop4159" />
      <stop
         style="stop-color:#ee12ff;stop-opacity:0.06077348"
         offset="1"
         id="stop4161" />
    </linearGradient>
    <linearGradient
       inkscape:collect="always"
       xlink:href="#linearGradient4157"
       id="linearGradient4163"
       x1="368.16074"
       y1="321.31046"
       x2="366.85986"
       y2="486.97549"
       gradientUnits="userSpaceOnUse"
       gradientTransform="translate(21.428574,252.85714)" />
    <radialGradient
       inkscape:collect="always"
       xlink:href="#linearGradient4181"
       id="radialGradient4187"
       cx="322.53992"
       cy="503.49594"
       fx="322.53992"
       fy="503.49594"
       r="82.691671"
       gradientTransform="matrix(-3.6788078,-0.83917398,0.24924257,-1.0924396,1371.4019,1506.5307)"
       gradientUnits="userSpaceOnUse" />
    <linearGradient
       inkscape:collect="always"
       xlink:href="#linearGradient9712"
       id="linearGradient9718"
       x1="353.81418"
       y1="433.33688"
       x2="391.77122"
       y2="433.33688"
       gradientUnits="userSpaceOnUse"
       gradientTransform="translate(21.428574,252.85714)" />
    <radialGradient
       inkscape:collect="always"
       xlink:href="#linearGradient9720"
       id="radialGradient9726"
       cx="412.74545"
       cy="582.72931"
       fx="412.74545"
       fy="582.72931"
       r="19.685714"
       gradientUnits="userSpaceOnUse"
       gradientTransform="matrix(0.71334147,1.1953488,-1.2351034,0.7370655,1012.3695,-294.72006)" />
    <linearGradient
       inkscape:collect="always"
       xlink:href="#linearGradient9769"
       id="linearGradient9775"
       x1="336.22849"
       y1="321.49521"
       x2="357.6731"
       y2="321.49521"
       gradientUnits="userSpaceOnUse"
       gradientTransform="translate(60.714285,-64.642857)" />
    <linearGradient
       inkscape:collect="always"
       xlink:href="#linearGradient10792"
       id="linearGradient10798"
       x1="439.74802"
       y1="375.48996"
       x2="462.83264"
       y2="264.77567"
       gradientUnits="userSpaceOnUse"
       gradientTransform="matrix(0.78463279,0,0,1.000229,129.60396,252.05639)" />
    <linearGradient
       inkscape:collect="always"
       xlink:href="#linearGradient10849"
       id="linearGradient10798-1"
       x1="461.59625"
       y1="454.04337"
       x2="436.43265"
       y2="342.61499"
       gradientUnits="userSpaceOnUse"
       gradientTransform="matrix(-0.78463279,0,0,-1.000229,576.98838,1008.2423)" />
  </defs>
  <sodipodi:namedview
     id="base"
     pagecolor="#ffffff"
     bordercolor="#666666"
     borderopacity="1.0"
     inkscape:pageopacity="0.0"
     inkscape:pageshadow="2"
     inkscape:zoom="1.4"
     inkscape:cx="384.03209"
     inkscape:cy="135.64738"
     inkscape:document-units="px"
     inkscape:current-layer="layer7"
     showgrid="false"
     inkscape:window-width="1304"
     inkscape:window-height="746"
     inkscape:window-x="54"
     inkscape:window-y="-8"
     inkscape:window-maximized="1" />
  <metadata
     id="metadata4200">
    <rdf:RDF>
      <cc:Work
         rdf:about="">
        <dc:format>image/svg+xml</dc:format>
        <dc:type
           rdf:resource="http://purl.org/dc/dcmitype/StillImage" />
        <dc:title></dc:title>
      </cc:Work>
    </rdf:RDF>
  </metadata>
  <g
     inkscape:label="Calque 1"
     inkscape:groupmode="layer"
     id="layer1"
     transform="translate(0,-308.26772)"
     style="display:none" />
  <g
     inkscape:groupmode="layer"
     id="layer2"
     inkscape:label="Evaporator"
     style="display:inline">
    <path
       style="display:inline;opacity:1;fill:url(#radialGradient4187);fill-opacity:1;stroke:#000000;stroke-width:0.72412676;stroke-miterlimit:4;stroke-dasharray:none;stroke-dashoffset:0;stroke-opacity:1"
       d="m 241.34184,571.54818 c -9.26868,-0.009 -18.53986,-0.0152 -27.8125,0.002 -3.16845,0.006 -6.33863,0.0137 -9.51367,0.0352 -1.0136,0.007 -2.03248,0.015 -3.05469,0.0293 -0.54135,0.007 -1.12141,0.0126 -1.74023,0.041 -2.86793,0.13599 -5.62355,1.34282 -7.66796,3.4375 -1.80041,1.87588 -2.93243,4.31659 -3.18945,6.91992 -0.27412,2.50372 0.43168,5.14251 2.1875,7.24805 2.28261,2.40152 5.33409,3.3836 8.1328,3.3125 4.65187,0.0329 9.29962,0.046 13.94141,0.0644 9.05841,0.0359 18.11534,0.0662 27.17383,0.0918 17.37628,0.0492 34.76679,0.14823 52.16993,0.0176 1.72074,0.009 3.4795,0.56558 4.57031,1.66406 1.00011,0.94374 1.68069,2.32069 1.7832,3.66797 0.097,1.25946 -0.29954,2.63008 -1.10937,3.44922 -0.93211,1.19326 -2.89903,1.66271 -4.9043,1.8125 -1.82418,0.0587 -3.69082,0.0509 -5.5957,0.0645 -3.7524,0.0259 -7.50705,0.0423 -11.26368,0.0566 -10.63791,0.0404 -21.27748,0.0629 -31.91797,0.0859 l 0,-0.0117 c -10.75038,0.0233 -21.50231,0.0427 -32.25391,0.0664 -5.90127,0.0129 -11.81896,-0.005 -17.75194,0.0586 -2.69404,0.17393 -4.86022,1.66043 -5.98242,3.75195 -1.15792,2.1604 -1.55187,4.48209 -1.44727,6.625 0.0296,2.16748 0.56396,4.46186 1.82031,6.55274 1.18323,2.01297 3.37075,3.45155 6.08203,3.58984 4.86985,-0.0233 9.74644,-0.0203 14.6289,-0.0273 9.55851,-0.0128 19.11705,-0.0223 28.67578,-0.0293 18.98036,-0.0132 37.95688,-0.0395 56.92775,0.0234 0.70725,-0.11023 1.61969,0.56691 2.15429,1.36718 0.73738,1.1006 1.002,2.64282 1,4.22266 -0.0743,1.60403 -0.44143,3.16606 -1.27343,4.23633 -0.65676,0.96445 -1.93697,1.62295 -3.1211,1.62695 -16.31645,0.25388 -32.64362,0.30355 -48.97852,0.31055 l 0,0.002 c -10.52576,0.0227 -21.05115,0.0412 -31.57813,0.0645 -5.90126,0.0129 -11.81896,-0.005 -17.75194,0.0586 -2.69405,0.17393 -4.86022,1.66042 -5.98242,3.75195 -1.15792,2.1604 -1.55187,4.48209 -1.44727,6.625 0.0296,2.16746 0.56397,4.46187 1.82031,6.55274 1.18323,2.01298 3.37074,3.45155 6.08203,3.58984 4.86984,-0.0233 9.7445,-0.0203 14.62695,-0.0273 9.55852,-0.0128 19.11706,-0.0223 28.67578,-0.0293 18.98036,-0.0132 37.95686,-0.0395 56.92774,0.0234 0.70725,-0.11023 1.6197,0.56691 2.1543,1.36718 0.73738,1.1006 1.002,2.64282 1,4.22266 -0.0743,1.60403 -0.43948,3.16606 -1.27148,4.23633 -0.65675,0.96445 -1.93697,1.62295 -3.1211,1.62695 -33.13593,0.51593 -66.31054,0.21826 -99.51367,0.3418 -2.63579,0.0576 -5.2584,1.29616 -6.99219,3.65234 -1.39007,2.18121 -1.83145,4.63638 -1.58789,6.8711 0.17465,2.26961 0.9558,4.5414 2.38477,6.48828 1.32409,1.88424 3.5295,3.24844 6.21875,3.41015 2.01695,0.0272 4.02027,0.0281 6.0078,0.0371 3.96374,0.0174 7.92648,0.0305 11.88867,0.043 11.20192,0.0355 22.40242,0.0621 33.60352,0.0879 11.19404,0.0258 22.38955,0.0499 33.58398,0.0684 5.92857,0.01 11.86885,0.0416 17.82032,0.0156 l 0,-0.0274 12.81836,0 0,-5.08203 -12.84179,0 0,-0.01 c -5.91823,0.0259 -11.84783,-0.006 -17.78908,-0.0156 -11.19294,-0.0185 -22.38677,-0.0426 -33.58007,-0.0684 -11.20049,-0.0258 -22.39998,-0.0525 -33.59961,-0.0879 -3.96166,-0.0126 -7.92275,-0.0256 -11.88282,-0.043 -2.00114,-0.009 -3.98759,-0.01 -5.95897,-0.0371 -0.65092,0.11576 -1.51223,-0.56363 -2.1875,-1.35547 -0.79557,-1.03057 -1.24318,-2.42577 -1.38477,-3.85937 -0.0656,-1.38589 0.0891,-2.74058 0.73047,-3.57227 0.41117,-0.82509 1.65318,-1.31343 2.85157,-1.39843 33.13866,-0.12279 66.31338,0.17438 99.51171,-0.3418 2.82671,-0.0927 5.45299,-1.45189 7.15821,-3.73047 1.53718,-2.1826 2.22771,-4.70794 2.25,-7.12695 0.0927,-2.34687 -0.43104,-4.83473 -1.7793,-7.0625 -1.32593,-2.16884 -3.67799,-3.64768 -6.47461,-3.76953 -18.98711,-0.063 -37.96946,-0.0366 -56.94727,-0.0234 -9.55962,0.007 -19.11987,0.0165 -28.67969,0.0293 -4.87588,0.007 -9.75811,0.004 -14.64648,0.0273 -0.47835,0.15372 -1.209,-0.47862 -1.71093,-1.17383 -0.69154,-1.03953 -0.96813,-2.48604 -1.04883,-4.00391 -0.005,-1.50783 0.17169,-2.94353 0.79687,-3.9707 0.41654,-0.6592 1.1127,-1.27309 1.57032,-1.13281 5.88647,-0.0626 11.78817,-0.0455 17.70702,-0.0586 10.75032,-0.0237 21.50236,-0.0431 32.2539,-0.0664 l 0,-0.002 c 16.12401,-0.008 32.25647,-0.0595 48.39454,-0.31055 2.82671,-0.0927 5.45297,-1.45189 7.15821,-3.73047 1.53717,-2.1826 2.22965,-4.70794 2.25195,-7.12695 0.0927,-2.34687 -0.43104,-4.83473 -1.7793,-7.0625 -1.32593,-2.16885 -3.67994,-3.64768 -6.47656,-3.76953 -18.98711,-0.063 -37.96947,-0.0366 -56.94727,-0.0234 -9.55962,0.007 -19.11987,0.0165 -28.67969,0.0293 -4.87588,0.007 -9.75811,0.004 -14.64648,0.0273 -0.47835,0.15372 -1.20705,-0.47862 -1.70898,-1.17383 -0.69154,-1.03953 -0.97008,-2.48607 -1.05078,-4.00391 -0.005,-1.50783 0.17365,-2.94353 0.79883,-3.9707 0.41654,-0.6592 1.11074,-1.27309 1.56836,-1.13281 5.88647,-0.0626 11.79011,-0.0455 17.70897,-0.0586 10.72949,-0.0237 21.45875,-0.0432 32.18945,-0.0664 l 0,0.0137 c 10.66224,-0.0232 21.32552,-0.0473 31.99024,-0.0879 3.75774,-0.0143 7.51743,-0.0306 11.2793,-0.0566 1.86788,-0.0125 3.77592,-0.005 5.72266,-0.0664 2.92463,-0.008 6.0917,-1.02673 8.50391,-3.45898 1.83684,-2.05008 2.68112,-4.72141 2.44922,-7.35156 -0.23641,-2.66041 -1.44463,-5.1337 -3.36524,-6.95508 -2.2727,-2.08583 -5.21609,-3.11031 -8.12695,-3.06641 -17.35821,0.13045 -34.73131,0.0335 -52.1172,-0.0156 -9.05651,-0.0256 -18.11341,-0.0579 -27.16992,-0.0937 -4.64665,-0.0184 -9.28938,-0.0297 -13.92578,-0.0625 -1.79544,-0.10357 -3.57314,-0.50353 -4.31249,-1.5625 -0.74459,-0.75771 -1.03677,-2.10846 -0.94727,-3.38867 0.12861,-1.40978 0.79247,-2.83189 1.78516,-3.86329 1.03699,-1.11269 2.64193,-1.79779 4.21678,-1.87109 0.48447,-0.0235 1.00923,-0.0272 1.57227,-0.0352 1.00113,-0.0141 2.00575,-0.0223 3.01563,-0.0293 3.15996,-0.0215 6.32354,-0.0292 9.49023,-0.0352 9.26391,-0.0172 18.53093,-0.0109 27.79883,-0.002 17.11947,0.016 34.24254,0.0675 51.3711,0.0644 l 0,-0.0312 57.93945,0 0,-5.05273 -57.93945,0 0,-0.0352 c -17.11759,0.003 -34.24055,-0.0485 -51.3672,-0.0645 z"
       id="rect4505"
       inkscape:connector-curvature="0" />
  </g>
  <g
     inkscape:groupmode="layer"
     id="layer3"
     inkscape:label="ExpansionValve"
     style="display:inline">
    <g
       transform="translate(-130.05357,293.12826)"
       style="display:inline"
       id="g4471">
      <path
         inkscape:connector-curvature="0"
         id="path5744"
         d="m 457.58413,379.92443 c -0.51047,-0.0239 -1.03345,0.0506 -1.54101,0.25391 -0.91602,0.41169 -1.75108,1.02328 -2.40625,1.80859 -0.52795,0.64901 -0.91141,1.34627 -1.28125,1.98633 -0.009,0.0186 -0.0164,0.0321 -0.0254,0.0508 -0.9425,1.96926 -1.54234,4.06515 -1.86524,6.20508 -0.11159,0.73955 -0.17965,1.486 -0.22851,2.23242 l -10.0625,0 0,1.1914 10.0039,0 c -0.0242,1.01316 -0.002,2.02473 0.0703,3.0293 4e-4,0.004 -4e-4,0.0151 0,0.0195 0.15107,1.31567 0.33176,2.6571 0.69921,3.98633 0.22669,0.805 0.53183,1.59002 0.91407,2.33984 0.30031,0.5891 0.64763,1.16229 1.04687,1.69532 0.28593,0.31393 0.62393,0.6688 1.07813,0.97656 0.64191,0.38569 1.37732,0.54018 2.08789,0.48242 0.56235,-0.14158 1.11006,-0.39213 1.59179,-0.74804 0.17254,-0.12748 0.33667,-0.26417 0.49024,-0.41993 0.4256,-0.46946 0.70313,-0.96269 0.97656,-1.36328 0.69463,-1.31553 1.19469,-2.72366 1.51563,-4.16406 0.086,-0.38614 0.15563,-0.77029 0.21679,-1.16016 0.27088,-1.7612 0.31047,-3.53538 0.26563,-5.27929 -0.107,0.003 -0.21361,0.005 -0.32031,0.008 l 0,-0.59375 -9.28126,0 c 0.0443,-0.6802 0.10583,-1.35828 0.20508,-2.0293 0.29857,-2.01853 0.8544,-3.97987 1.73828,-5.79883 0.008,-0.0173 0.017,-0.0335 0.0254,-0.0508 0.38056,-0.64623 0.71358,-1.27297 1.13476,-1.77148 0.50556,-0.61804 1.17972,-1.10235 1.92383,-1.43945 0.28195,-0.12795 0.61652,-0.16805 0.96484,-0.14649 0.17676,0.011 0.36014,0.039 0.53907,0.0762 0.46998,0.12289 0.90453,0.28138 1.17968,0.55274 0.8748,0.71845 1.59694,1.62013 2.125,2.62695 0.0537,0.10172 0.10995,0.20619 0.16016,0.31055 l 1.16601,-0.5586 c -0.0564,-0.11848 -0.10915,-0.23792 -0.16992,-0.35547 -0.5978,-1.14997 -1.42752,-2.18061 -2.43164,-3.00781 -0.52771,-0.46839 -1.14925,-0.72029 -1.74414,-0.83789 -0.24487,-0.0584 -0.50269,-0.0953 -0.76172,-0.10742 z m -6.11133,13.72851 8.35938,0 c 0.0189,1.5091 -0.0202,3.00953 -0.24805,4.47071 -0.0548,0.35869 -0.12014,0.71826 -0.19726,1.07226 -0.28768,1.32053 -0.73133,2.59887 -1.35743,3.78125 -0.31308,0.44542 -0.54146,0.86724 -0.82031,1.14844 -0.0869,0.10052 -0.18408,0.19003 -0.29101,0.27344 -0.29853,0.23291 -0.66552,0.40199 -1.05274,0.50781 -0.42675,0.025 -0.86416,-0.0681 -1.18164,-0.29883 -0.2553,-0.14805 -0.48842,-0.42138 -0.7793,-0.72265 -0.34609,-0.45993 -0.65339,-0.95487 -0.91406,-1.47266 -0.33178,-0.65905 -0.59487,-1.3571 -0.79297,-2.07422 -0.33848,-1.20029 -0.50211,-2.47068 -0.65429,-3.76367 -5.9e-4,-0.004 5.9e-4,-0.007 0,-0.0117 -0.0686,-0.96778 -0.0916,-1.94095 -0.0703,-2.91016 z"
         style="fill:#a8a8a8;fill-opacity:1;stroke:#000000;stroke-width:0.40610683;stroke-linecap:round;stroke-linejoin:round;stroke-miterlimit:10;stroke-opacity:1" />
      <path
         inkscape:connector-curvature="0"
         id="path5728"
         d="m 464.8563,381.96814 c -0.0224,-0.0276 -0.0469,-0.0551 -0.0698,-0.0825 -0.65633,-0.76443 -1.4882,-1.34989 -2.39857,-1.7323 -0.76765,-0.29363 -1.58195,-0.29281 -2.30973,-0.10153 -0.58452,0.13641 -1.17822,0.39816 -1.68788,0.83126 -0.008,0.007 -0.017,0.0118 -0.0254,0.019 -1.04723,0.89489 -1.89736,2.00071 -2.50644,3.22983 -0.37929,0.77136 -0.67022,1.56344 -0.92644,2.3478 -0.1064,0.32573 -0.2048,0.6561 -0.30458,0.97719 -0.44339,1.75839 -0.72473,3.559 -0.8249,5.37457 -0.11913,2.15935 0.0153,4.33172 0.44418,6.45329 0.13595,0.67254 0.30576,1.34494 0.50129,2.00515 0.2733,0.71709 0.53285,1.49064 0.94546,2.25263 0.34907,0.63741 0.80615,1.21132 1.34523,1.69423 0.20293,0.18177 0.41594,0.35287 0.64089,0.50763 0.53723,0.38873 1.13232,0.49224 1.62442,0.45052 0.48846,0.0223 1.06835,-0.093 1.59271,-0.48224 0.84601,-0.61764 1.54033,-1.4317 2.02419,-2.3605 0.0245,-0.0474 0.0464,-0.0921 0.0698,-0.1396 0.37622,-0.76466 0.62696,-1.54623 0.88201,-2.27166 0.36179,-1.3183 0.60443,-2.66144 0.74241,-4.01665 0.21894,-2.15021 0.16685,-4.32589 -0.1396,-6.46599 -0.16804,-1.17355 -0.41454,-2.33621 -0.72972,-3.47729 -0.30404,-0.90354 -0.61968,-1.83756 -1.05333,-2.74756 l -1.16756,0.5584 c 0.38567,0.80156 0.67785,1.67417 0.98354,2.56989 0.29988,1.0821 0.53106,2.18793 0.69165,3.29962 0.29283,2.02727 0.34614,4.08283 0.1396,6.11063 -0.13019,1.27807 -0.36069,2.54454 -0.70435,3.78188 -0.26532,0.74018 -0.49013,1.45477 -0.80586,2.0813 -0.0197,0.039 -0.0367,0.076 -0.0571,0.11422 -0.39872,0.75872 -0.97589,1.4313 -1.66885,1.93534 -0.13533,0.14981 -0.46153,0.17912 -0.82491,0.21575 -0.36641,-0.0273 -0.69238,-0.0481 -0.8249,-0.19671 -0.18285,-0.12548 -0.35459,-0.26463 -0.52033,-0.41245 -0.44028,-0.39269 -0.8192,-0.8565 -1.1041,-1.37061 -0.33903,-0.6033 -0.57012,-1.31214 -0.85663,-2.04957 -0.18542,-0.61766 -0.34104,-1.24685 -0.46956,-1.87824 -0.40544,-1.99178 -0.53486,-4.04174 -0.41879,-6.08526 0.0976,-1.7182 0.37112,-3.43083 0.79317,-5.10172 0.10024,-0.318 0.19658,-0.6339 0.29823,-0.94547 0.2448,-0.75027 0.50629,-1.478 0.84395,-2.15109 0.53635,-1.07867 1.28267,-2.0528 2.19551,-2.83006 0.004,-0.004 0.0142,-0.008 0.019,-0.0127 0.29443,-0.26554 0.71191,-0.43551 1.16122,-0.5584 0.52473,-0.12284 1.0663,-0.13542 1.49751,0.0508 0.73529,0.31177 1.40858,0.775 1.90997,1.37061 0.0181,0.0207 0.033,0.0422 0.0508,0.0634 l 1.00258,-0.82489 z"
         style="fill:#a8a8a8;fill-opacity:1;stroke:#000000;stroke-width:0.40610683;stroke-linecap:round;stroke-linejoin:round;stroke-miterlimit:10;stroke-opacity:1" />
      <path
         inkscape:connector-curvature="0"
         id="path5710"
         d="m 470.42758,385.43273 c -0.0141,-0.0366 -0.03,-0.0714 -0.0444,-0.10787 -0.57414,-1.44174 -1.40565,-2.79217 -2.47471,-3.93416 -0.43895,-0.42543 -0.94772,-0.80709 -1.54193,-1.08506 -0.0448,-0.0199 -0.0879,-0.0388 -0.13326,-0.0572 -0.76052,-0.30671 -1.60412,-0.38982 -2.41126,-0.24113 -0.87495,0.25177 -1.70326,0.69368 -2.38588,1.33888 -0.50464,0.49901 -0.88616,1.04607 -1.24369,1.5356 -0.0144,0.0197 -0.0238,0.0377 -0.0381,0.0571 -1.05294,1.75625 -1.78963,3.69171 -2.2209,5.67915 -0.026,0.12122 -0.0522,0.24023 -0.0762,0.36169 -0.34689,1.76562 -0.47504,3.55352 -0.50763,5.3238 0.008,0.36454 0.016,0.731 0.0317,1.09776 0.0534,1.24608 0.16636,2.50109 0.40611,3.75015 0.17718,0.9036 0.42529,1.79987 0.7551,2.66507 0.29257,0.76748 0.65142,1.50954 1.07238,2.2209 0.26496,0.34764 0.5457,0.78122 0.9645,1.19293 0.57648,0.51821 1.27888,0.83564 1.99881,0.96451 0.3049,0.0104 0.6174,-0.0212 0.92009,-0.0888 0.39507,-0.0883 0.77695,-0.23983 1.12948,-0.46956 0.44297,-0.32313 0.76505,-0.69558 1.04065,-1.00257 0.85892,-1.17967 1.47916,-2.50585 1.87824,-3.88975 0.0172,-0.0596 0.028,-0.12417 0.0444,-0.18401 0.36185,-1.3473 0.54096,-2.70826 0.68531,-4.04203 0.0472,-0.72899 0.0656,-1.46076 0.0635,-2.19553 -0.007,-2.16195 -0.23331,-4.33708 -0.7678,-6.43425 -0.35803,-1.40483 -0.85262,-2.77491 -1.50386,-4.08644 -0.35574,-0.58599 -0.72046,-1.22809 -1.21197,-1.83383 l -1.00258,0.8249 c 0.38989,0.46567 0.70875,1.03917 1.07872,1.63712 0.60982,1.20833 1.0699,2.48543 1.40233,3.80091 0.49629,1.96378 0.70728,4.01947 0.71069,6.07891 0.001,0.69991 -0.0193,1.39628 -0.0635,2.09399 -0.14544,1.30988 -0.30683,2.60039 -0.64089,3.81994 -0.0144,0.0535 -0.0294,0.10542 -0.0444,0.15864 -0.34875,1.23463 -0.885,2.41315 -1.63078,3.43287 -0.29501,0.31128 -0.52542,0.59288 -0.77414,0.74876 -0.17572,0.13607 -0.39045,0.2318 -0.62185,0.28554 -0.17729,0.0412 -0.36484,0.0592 -0.55205,0.0571 -0.48115,-0.0969 -0.93839,-0.29422 -1.25005,-0.6155 -0.25809,-0.2281 -0.48079,-0.59532 -0.78683,-0.98354 -0.37474,-0.63125 -0.68561,-1.29443 -0.94547,-1.98612 -0.29294,-0.77976 -0.51513,-1.59394 -0.67261,-2.41761 -0.22574,-1.15334 -0.32907,-2.3401 -0.38072,-3.54074 -0.0152,-0.35337 -0.03,-0.70416 -0.0381,-1.05969 0.0345,-1.71529 0.16019,-3.42328 0.4886,-5.07633 0.0226,-0.1137 0.0453,-0.2231 0.0698,-0.3363 0.39377,-1.84229 1.06141,-3.62568 2.02419,-5.22863 0.015,-0.0199 0.0296,-0.0435 0.0444,-0.0635 0.36909,-0.49523 0.69108,-0.96251 1.06603,-1.31351 0.4795,-0.47781 1.11289,-0.81468 1.78941,-1.01526 0.53727,-0.10003 1.10954,-0.0382 1.61174,0.17766 0.03,0.0129 0.0594,0.0242 0.0888,0.0381 0.41516,0.18248 0.799,0.47653 1.16122,0.81856 0.94266,1.00314 1.67801,2.20481 2.18916,3.49633 0.0132,0.0329 0.0252,0.0686 0.0381,0.10152 l 1.21198,-0.46956 z"
         style="fill:#a8a8a8;fill-opacity:1;stroke:#000000;stroke-width:0.40610683;stroke-linecap:round;stroke-linejoin:round;stroke-miterlimit:10;stroke-opacity:1" />
      <path
         inkscape:connector-curvature="0"
         id="path5690"
         d="m 472.85153,383.07858 c -0.10645,-0.17717 -0.22186,-0.35281 -0.34265,-0.52667 -0.62845,-0.89289 -1.45156,-1.63433 -2.39223,-2.17013 -0.63627,-0.38082 -1.32967,-0.48441 -1.9417,-0.45053 -0.4024,-0.007 -0.83883,0.0469 -1.26908,0.20305 -0.21072,0.0765 -0.41957,0.18028 -0.62185,0.31093 -0.94416,0.57027 -1.76447,1.33947 -2.38588,2.25897 -0.52632,0.78726 -0.90367,1.61969 -1.26908,2.39857 -0.0165,0.0424 -0.0282,0.0844 -0.0444,0.12691 -0.77701,2.02684 -1.25994,4.14452 -1.47849,6.29466 -0.21853,2.15013 -0.17586,4.33274 0.10788,6.47232 0.0343,0.25857 0.0731,0.51683 0.11421,0.77414 0.2244,1.05278 0.45253,2.1421 0.8503,3.21713 0.28694,0.77298 0.6703,1.51181 1.14851,2.18917 0.25025,0.35446 0.53028,0.6927 0.83126,1.00892 0.3951,0.44448 0.88993,0.72095 1.37695,0.86298 0.64536,0.21478 1.38174,0.21427 2.06861,-0.0762 0.72413,-0.38358 1.37109,-0.91849 1.8719,-1.58 0.0595,-0.0786 0.116,-0.15908 0.17132,-0.24113 0.41855,-0.64443 0.69195,-1.31235 0.97085,-1.90362 0.48432,-1.3113 0.81909,-2.66087 1.0343,-4.02935 0.33625,-2.13806 0.37401,-4.31842 0.17768,-6.47233 -0.0749,-0.8212 -0.18656,-1.64097 -0.32362,-2.44933 -0.27934,-1.28235 -0.58763,-2.58899 -1.07873,-3.86436 l -1.21197,0.46956 c 0.44938,1.15056 0.73677,2.38242 1.01527,3.64228 0.13011,0.77301 0.23849,1.55379 0.31092,2.33511 0.18998,2.0493 0.16562,4.1147 -0.14594,6.11698 -0.19941,1.28157 -0.51505,2.53854 -0.97085,3.75015 -0.29911,0.6204 -0.53311,1.20721 -0.85663,1.68153 -0.0395,0.0609 -0.0837,0.1254 -0.12691,0.18402 -0.36382,0.49331 -0.85731,0.89895 -1.40869,1.19293 -0.3012,0.1507 -0.71434,0.12695 -1.09774,0.007 -0.33913,-0.12728 -0.64934,-0.27868 -0.81857,-0.49494 -0.25916,-0.27047 -0.49341,-0.56181 -0.71068,-0.86932 -0.41521,-0.58763 -0.75273,-1.23748 -1.00893,-1.91632 -0.3549,-0.93681 -0.56567,-1.95421 -0.79317,-3.00139 -0.0392,-0.24464 -0.0752,-0.49034 -0.10788,-0.73606 -0.27071,-2.03328 -0.31824,-4.0974 -0.11421,-6.12968 0.20402,-2.03226 0.66103,-4.02919 1.39599,-5.92662 0.0154,-0.0398 0.0288,-0.0808 0.0444,-0.12056 0.37259,-0.78173 0.70683,-1.54069 1.14852,-2.18283 0.51987,-0.76574 1.21994,-1.41501 2.01785,-1.89727 0.0916,-0.0712 0.19953,-0.12376 0.32361,-0.16498 0.25333,-0.0842 0.56285,-0.11789 0.88836,-0.1396 0.49023,0.0113 0.94997,0.0489 1.2437,0.26016 0.78973,0.45059 1.48662,1.07292 2.00516,1.80844 0.10038,0.14018 0.19438,0.28638 0.28553,0.43783 l 1.1168,-0.65992 z"
         style="fill:#a8a8a8;fill-opacity:1;stroke:#000000;stroke-width:0.40610683;stroke-linecap:round;stroke-linejoin:round;stroke-miterlimit:10;stroke-opacity:1" />
      <path
         inkscape:connector-curvature="0"
         id="path5672"
         d="m 478.06112,386.6574 c -0.4993,-1.5552 -1.21843,-3.04263 -2.17014,-4.38469 -0.34895,-0.40329 -0.72688,-0.86422 -1.21197,-1.27542 -0.0387,-0.0328 -0.0741,-0.063 -0.11422,-0.0952 -0.73403,-0.55172 -1.6013,-0.86609 -2.47472,-0.97719 -0.84602,-0.004 -1.70849,0.20522 -2.46201,0.65358 -0.5532,0.3535 -0.98367,0.77996 -1.37061,1.18024 -0.0129,0.0155 -0.0253,0.0352 -0.0381,0.0508 -1.03832,1.26519 -1.83096,2.71342 -2.36685,4.24509 -0.19101,0.55272 -0.34974,1.10887 -0.4886,1.66884 -0.21926,0.88431 -0.38416,1.77859 -0.53301,2.65873 -0.1564,1.23649 -0.25046,2.49248 -0.26016,3.75014 -0.0167,2.16805 0.21404,4.34102 0.79317,6.43426 0.20938,0.75675 0.46255,1.50213 0.7678,2.23358 0.27905,0.50951 0.55481,1.10009 0.97085,1.6752 0.52756,0.69421 1.22775,1.22503 2.00516,1.56732 0.008,0.004 0.0178,0.009 0.0254,0.0127 0.69889,0.22152 1.43692,0.1733 2.08764,-0.0952 0.47661,-0.19869 0.9103,-0.5008 1.26274,-0.8947 0.80379,-0.90325 1.42685,-1.95502 1.85286,-3.07118 0.0326,-0.0855 0.0584,-0.16763 0.0888,-0.25382 0.38873,-1.11114 0.61475,-2.24467 0.8249,-3.3377 0.13265,-0.9223 0.22181,-1.85204 0.26651,-2.78564 0.10337,-2.15894 -0.0388,-4.33303 -0.45687,-6.45328 -0.28965,-1.4689 -0.71283,-2.90805 -1.28177,-4.3022 -0.28295,-0.57755 -0.5683,-1.18698 -0.92644,-1.78306 l -1.11679,0.65992 c 0.30667,0.50953 0.57361,1.07507 0.86298,1.65616 0.53744,1.30185 0.93382,2.65204 1.20563,4.03568 0.39233,1.99721 0.51948,4.06006 0.41879,6.11064 -0.0435,0.88673 -0.12764,1.76785 -0.25381,2.64604 -0.21209,1.08198 -0.4118,2.1378 -0.76145,3.11561 -0.0269,0.0758 -0.0601,0.1533 -0.0888,0.22843 -0.37576,0.98119 -0.90782,1.90022 -1.59904,2.67142 -0.21278,0.24019 -0.49326,0.43384 -0.79953,0.56474 -0.36112,0.15751 -0.78515,0.19663 -1.12948,0.0761 -0.006,-0.002 -0.007,-0.0102 -0.0127,-0.0127 -0.57113,-0.25567 -1.08291,-0.63896 -1.43406,-1.12948 -0.3052,-0.39732 -0.5362,-0.91628 -0.84395,-1.46579 -0.28534,-0.66989 -0.52288,-1.36165 -0.71703,-2.06227 -0.53703,-1.93797 -0.74001,-3.97373 -0.71703,-6.02815 0.0133,-1.19174 0.0995,-2.38788 0.24747,-3.57246 0.14794,-0.86108 0.30896,-1.71508 0.51397,-2.54451 0.12984,-0.52523 0.27389,-1.04467 0.45053,-1.54829 0.47917,-1.38471 1.18467,-2.68686 2.10668,-3.80725 0.0114,-0.0139 0.0203,-0.0307 0.0317,-0.0444 0.37834,-0.37746 0.72264,-0.72562 1.09777,-0.94547 0.48192,-0.3147 1.08815,-0.46504 1.69422,-0.46956 0.65212,0.0917 1.27666,0.32428 1.75769,0.71703 0.028,0.0207 0.055,0.0412 0.0825,0.0635 0.34522,0.2795 0.65626,0.66904 1.02161,1.07872 0.85683,1.20555 1.51049,2.56256 1.96074,3.98492 l 1.23101,-0.39976 z"
         style="fill:#a8a8a8;fill-opacity:1;stroke:#000000;stroke-width:0.40610683;stroke-linecap:round;stroke-linejoin:round;stroke-miterlimit:10;stroke-opacity:1" />
      <path
         inkscape:connector-curvature="0"
         id="path5652"
         d="m 480.69447,384.24614 c -0.16298,-0.34633 -0.34421,-0.68873 -0.54571,-1.02796 -0.61605,-1.02871 -1.4483,-1.92214 -2.4303,-2.60796 -0.57556,-0.43013 -1.22351,-0.60918 -1.81479,-0.65358 -0.10017,-0.0135 -0.20751,-0.0194 -0.31092,-0.0254 -0.57706,-0.0337 -1.19768,0.0512 -1.78306,0.34266 -0.88968,0.45392 -1.6839,1.09626 -2.30974,1.89093 -0.47302,0.61144 -0.83233,1.25733 -1.16756,1.8719 -0.0306,0.0562 -0.0584,0.11571 -0.0888,0.17132 -0.88554,1.92044 -1.45665,3.95424 -1.77038,6.02815 -0.32347,2.13847 -0.37464,4.31854 -0.20939,6.46598 0.013,0.16872 0.0288,0.3394 0.0444,0.50763 0.17291,1.25086 0.36671,2.52805 0.74241,3.79457 0.20904,0.69424 0.47988,1.37509 0.81222,2.02419 0.3233,0.63147 0.6997,1.23404 1.14217,1.79575 0.30565,0.3395 0.67827,0.69066 1.14852,0.97085 0.66357,0.35467 1.41739,0.46351 2.13841,0.34265 0.48492,-0.16019 0.95195,-0.39405 1.37061,-0.70433 0.24711,-0.18315 0.47707,-0.3933 0.6853,-0.6282 0.42016,-0.50865 0.6951,-1.03731 0.97086,-1.47849 0.59257,-1.22579 1.0295,-2.51253 1.3262,-3.83263 0.1308,-0.58204 0.23987,-1.17422 0.31726,-1.76402 0.20099,-1.56952 0.22722,-3.14311 0.16498,-4.70196 -0.0114,-0.28632 -0.0274,-0.57153 -0.0444,-0.85663 -0.15996,-1.65111 -0.39059,-3.31829 -0.85029,-4.95578 -0.0529,-0.18582 -0.11221,-0.37427 -0.17132,-0.55839 l -1.23101,0.39976 c 0.0533,0.1684 0.10457,0.33749 0.15228,0.50763 0.43069,1.51338 0.6467,3.10075 0.80588,4.7083 0.016,0.27625 0.0335,0.55534 0.0444,0.83125 0.0591,1.50216 0.0334,2.9941 -0.15864,4.46083 -0.0696,0.54563 -0.16743,1.08847 -0.28554,1.62443 -0.26788,1.21558 -0.66066,2.39748 -1.19929,3.50902 -0.31035,0.48378 -0.54167,0.94386 -0.83125,1.26908 -0.12541,0.1571 -0.26787,0.29375 -0.43149,0.4188 -0.27719,0.21186 -0.60395,0.37661 -0.94546,0.49494 -0.41342,0.0641 -0.85082,-0.002 -1.1866,-0.21574 -0.27215,-0.14171 -0.52551,-0.39778 -0.79952,-0.68531 -0.38256,-0.48278 -0.71551,-1.00685 -0.99623,-1.56097 -0.28857,-0.5696 -0.52077,-1.16665 -0.70435,-1.78306 -0.34393,-1.13581 -0.52371,-2.34603 -0.69799,-3.57882 -0.0147,-0.16084 -0.0258,-0.3211 -0.0381,-0.48226 -0.15629,-2.0512 -0.11623,-4.12503 0.18401,-6.14236 0.29118,-1.95643 0.82345,-3.86155 1.65615,-5.64107 0.0309,-0.0557 0.0647,-0.10978 0.0952,-0.16499 0.33309,-0.60341 0.64381,-1.18206 1.02795,-1.6625 0.49978,-0.63915 1.15744,-1.15997 1.89094,-1.53559 0.29549,-0.17215 0.69282,-0.21344 1.11679,-0.19671 0.076,0.003 0.15131,0.013 0.22844,0.019 0.47745,0.0736 0.92402,0.16435 1.19294,0.39977 0.84219,0.58732 1.55813,1.35539 2.08764,2.23358 0.17356,0.28508 0.32961,0.58858 0.47591,0.90105 l 1.18025,-0.53936 z"
         style="fill:#a8a8a8;fill-opacity:1;stroke:#000000;stroke-width:0.40610683;stroke-linecap:round;stroke-linejoin:round;stroke-miterlimit:10;stroke-opacity:1" />
      <path
         inkscape:connector-curvature="0"
         id="path5634"
         d="m 482.8646,381.99352 c -0.14266,-0.17936 -0.29591,-0.35349 -0.46322,-0.52668 -0.67367,-0.67033 -1.49932,-1.1494 -2.37953,-1.42771 -0.84211,-0.19773 -1.72502,-0.12173 -2.51279,0.19671 -0.38821,0.16059 -0.75384,0.37291 -1.08506,0.62185 -0.17633,0.13252 -0.34417,0.27819 -0.50129,0.43148 -1.03056,1.0407 -1.84479,2.27487 -2.4176,3.61055 -0.22177,0.5214 -0.40512,1.05013 -0.57109,1.58001 -0.21879,0.69853 -0.40386,1.40261 -0.57744,2.09398 -0.28026,1.40098 -0.4669,2.82951 -0.5457,4.26412 -0.11874,2.16171 0.0128,4.3328 0.45053,6.4533 0.19389,0.93928 0.44785,1.86811 0.76779,2.77929 0.28064,0.6087 0.54974,1.29514 0.9645,1.96073 0.29621,0.46307 0.66003,0.87656 1.07238,1.23102 0.28903,0.24845 0.60107,0.46692 0.93278,0.65357 0.61934,0.32203 1.27985,0.35655 1.84651,0.2221 0.46428,-0.0648 0.98771,-0.27042 1.42772,-0.70435 0.70512,-0.62968 1.28399,-1.38386 1.71961,-2.21454 0.0833,-0.15881 0.16222,-0.31835 0.23478,-0.48226 0.40474,-0.9171 0.6571,-1.85199 0.9074,-2.74122 0.22344,-1.01498 0.38557,-2.04382 0.48859,-3.07753 0.21435,-2.15066 0.16963,-4.32733 -0.13959,-6.46598 -0.22152,-1.53203 -0.58078,-3.0411 -1.07239,-4.5116 -0.22406,-0.55278 -0.45003,-1.12685 -0.71702,-1.69422 l -1.18025,0.53936 c 0.23968,0.51191 0.45193,1.05358 0.67896,1.60539 0.46669,1.38637 0.80538,2.81588 1.01527,4.26412 0.29299,2.02169 0.33797,4.0763 0.13325,6.11064 -0.0984,0.97781 -0.25672,1.95332 -0.46956,2.91255 -0.2557,0.89167 -0.48056,1.75232 -0.83125,2.52548 -0.0634,0.14032 -0.13079,0.28285 -0.20305,0.4188 -0.37798,0.71105 -0.8758,1.35472 -1.47215,1.88459 -0.12605,0.16979 -0.43368,0.25554 -0.78048,0.35534 -0.37319,0.0562 -0.7361,0.0733 -0.95181,-0.0761 -0.25803,-0.14541 -0.49913,-0.31559 -0.72338,-0.50763 -0.31992,-0.27399 -0.60302,-0.59375 -0.82491,-0.94547 -0.32444,-0.49693 -0.55554,-1.11124 -0.85663,-1.75133 -0.30177,-0.84531 -0.54194,-1.71073 -0.72337,-2.58894 -0.40961,-1.98262 -0.52389,-4.03059 -0.40611,-6.07891 0.0782,-1.35937 0.25985,-2.7182 0.52667,-4.05472 0.17318,-0.68032 0.34252,-1.35368 0.54571,-2.00515 0.15413,-0.4942 0.3255,-0.97542 0.52666,-1.44042 0.51068,-1.19129 1.23237,-2.29341 2.13841,-3.20443 0.11808,-0.11416 0.24379,-0.21909 0.37438,-0.31727 0.24531,-0.18443 0.50816,-0.33751 0.78683,-0.45053 0.528,-0.2214 1.13411,-0.28536 1.67519,-0.15229 0.68769,0.2225 1.32587,0.584 1.80845,1.08507 0.12598,0.12394 0.24533,0.26526 0.36169,0.41245 l 1.02161,-0.79317 z"
         style="fill:#a8a8a8;fill-opacity:1;stroke:#000000;stroke-width:0.40610683;stroke-linecap:round;stroke-linejoin:round;stroke-miterlimit:10;stroke-opacity:1" />
      <path
         inkscape:connector-curvature="0"
         id="path5616"
         d="m 488.41684,385.45176 c -0.25614,-0.65685 -0.54554,-1.32208 -0.90739,-1.96707 -0.60497,-1.07196 -1.42689,-2.01891 -2.41126,-2.76026 -0.27445,-0.22599 -0.56812,-0.38886 -0.86932,-0.50763 -0.30933,-0.12197 -0.6259,-0.19736 -0.92644,-0.23478 -0.69212,-0.12504 -1.46929,-0.08 -2.19551,0.25382 -0.88269,0.42716 -1.67958,1.03801 -2.30973,1.80844 -0.22443,0.27998 -0.42047,0.56748 -0.60281,0.85663 -0.23662,0.37518 -0.44893,0.75532 -0.65358,1.11679 -0.7563,1.57939 -1.28794,3.23723 -1.63713,4.93674 -0.43534,2.11881 -0.58641,4.29699 -0.51397,6.45329 0.0146,0.43421 0.038,0.86912 0.0698,1.30081 0.15126,1.31163 0.33194,2.65324 0.698,3.97858 0.10614,0.37741 0.22803,0.74913 0.36803,1.11679 0.38957,1.02295 0.91322,2.00027 1.57367,2.88717 0.28178,0.3122 0.60953,0.67704 1.05968,0.98988 0.63278,0.39357 1.36764,0.55189 2.07496,0.50129 0.0966,-0.0201 0.18991,-0.043 0.28554,-0.0698 0.58995,-0.16527 1.15538,-0.45677 1.63077,-0.88835 0.40628,-0.40048 0.68579,-0.82342 0.94548,-1.16756 0.61902,-1.03711 1.09507,-2.15285 1.4404,-3.29963 0.14695,-0.48798 0.26738,-0.98077 0.36803,-1.47848 0.31329,-1.58003 0.41775,-3.17266 0.46323,-4.74002 -5.9e-4,-0.0705 10e-4,-0.13881 0,-0.2094 -0.026,-1.83173 -0.16601,-3.6842 -0.53937,-5.50783 -0.0636,-0.30645 -0.13168,-0.61018 -0.2094,-0.91374 -0.42748,-1.66976 -1.0718,-3.29158 -1.9417,-4.79079 -0.24987,-0.35761 -0.50928,-0.7423 -0.81221,-1.12314 l -1.02161,0.79318 c 0.24707,0.31256 0.48069,0.66791 0.74242,1.03431 0.79748,1.37167 1.38504,2.86763 1.77671,4.41641 0.0712,0.28156 0.13842,0.5656 0.1967,0.85028 0.35411,1.70508 0.48006,3.4634 0.50764,5.23497 0.001,0.0683 0.005,0.13475 0.007,0.20305 -0.0476,1.5288 -0.14331,3.0416 -0.43783,4.49891 -0.0897,0.45348 -0.19937,0.9032 -0.32996,1.34522 -0.30688,1.03874 -0.73102,2.03748 -1.28178,2.95697 -0.29432,0.377 -0.5147,0.72602 -0.7678,0.95182 -0.26233,0.26911 -0.61879,0.45702 -1.00892,0.57109 -0.0633,0.0185 -0.12576,0.036 -0.19035,0.0508 -0.42804,0.0221 -0.86327,-0.0718 -1.18025,-0.30457 -0.25307,-0.15086 -0.48904,-0.43108 -0.78049,-0.73608 -0.57257,-0.76522 -1.02516,-1.6188 -1.36427,-2.52547 -0.12187,-0.32586 -0.23077,-0.65992 -0.32361,-0.99623 -0.33718,-1.19695 -0.50119,-2.46095 -0.65358,-3.75014 -0.0298,-0.41312 -0.0496,-0.82924 -0.0635,-1.2437 -0.0691,-2.05828 0.0586,-4.12473 0.46322,-6.11699 0.32452,-1.59799 0.82587,-3.14727 1.53559,-4.60678 0.20833,-0.36131 0.40308,-0.71759 0.60916,-1.04698 0.15882,-0.25387 0.32706,-0.49311 0.50762,-0.7107 0.49634,-0.61355 1.14902,-1.10781 1.87191,-1.45944 0.381,-0.20279 0.8986,-0.20937 1.42137,-0.1396 0.24252,0.0496 0.47317,0.10881 0.67896,0.18402 0.20039,0.0732 0.37715,0.16103 0.50763,0.28554 0.85169,0.64018 1.56585,1.46524 2.09399,2.39222 0.31529,0.54958 0.56939,1.14636 0.81221,1.77037 l 1.22467,-0.44417 z"
         style="fill:#a8a8a8;fill-opacity:1;stroke:#000000;stroke-width:0.40610683;stroke-linecap:round;stroke-linejoin:round;stroke-miterlimit:10;stroke-opacity:1" />
      <path
         inkscape:connector-curvature="0"
         id="path5596"
         d="m 490.84079,383.07858 c -0.32547,-0.48964 -0.67372,-1.01987 -1.12948,-1.51021 -0.67065,-0.6957 -1.50245,-1.19877 -2.39223,-1.50386 -0.80363,-0.21551 -1.64952,-0.16558 -2.41126,0.10152 -0.0284,0.01 -0.0543,0.0212 -0.0825,0.0317 -0.59762,0.22467 -1.15315,0.56532 -1.61808,1.01526 -1.00735,0.9836 -1.81274,2.16414 -2.38587,3.43922 -0.0883,0.19785 -0.16888,0.39671 -0.24748,0.59647 -0.37831,0.96148 -0.65618,1.94058 -0.91373,2.89986 -0.24741,1.11783 -0.42923,2.25133 -0.54572,3.3948 -0.21917,2.1516 -0.19553,4.33308 0.12057,6.47232 0.17948,1.21468 0.44916,2.41485 0.8249,3.59151 0.2741,0.67457 0.5391,1.41141 0.95182,2.13207 0.0942,0.16207 0.19605,0.3175 0.30458,0.46955 0.45255,0.63407 1.02748,1.17884 1.68153,1.59905 0.58927,0.3853 1.23343,0.45662 1.77038,0.36803 0.4808,-0.0126 1.05504,-0.16971 1.54827,-0.6155 0.43005,-0.35129 0.81772,-0.75563 1.15488,-1.19294 0.32531,-0.42195 0.60343,-0.87622 0.83124,-1.35792 0.41082,-0.87224 0.66316,-1.7589 0.92644,-2.59528 0.17595,-0.72829 0.3197,-1.46819 0.43148,-2.2082 0.32292,-2.13777 0.38228,-4.31456 0.17768,-6.46599 -0.17391,-1.82863 -0.53805,-3.63877 -1.08506,-5.3936 -0.11071,-0.29628 -0.21859,-0.5928 -0.33632,-0.89471 l -1.22467,0.44418 c 0.11162,0.28681 0.2247,0.58127 0.33631,0.87567 0.5201,1.65754 0.86238,3.37215 1.02796,5.10171 0.19481,2.03487 0.14198,4.09189 -0.16498,6.11065 -0.10626,0.69882 -0.23876,1.3945 -0.40611,2.0813 -0.27159,0.84704 -0.50614,1.66425 -0.85663,2.38587 -0.1963,0.40619 -0.43443,0.79255 -0.71069,1.14853 -0.2863,0.36894 -0.61051,0.70306 -0.97084,0.99622 -0.11261,0.16147 -0.43994,0.21467 -0.81222,0.29189 -0.38582,0.009 -0.7453,0.007 -0.90739,-0.15229 -0.52484,-0.33678 -0.98259,-0.77153 -1.34523,-1.27543 -0.087,-0.12083 -0.17254,-0.2462 -0.24747,-0.37437 -0.33358,-0.55977 -0.56794,-1.22622 -0.85663,-1.92267 -0.35545,-1.09713 -0.61236,-2.22171 -0.78049,-3.36307 -0.29609,-2.01011 -0.31301,-4.07524 -0.10153,-6.11698 0.1124,-1.08508 0.29118,-2.16493 0.52667,-3.22982 0.25678,-0.9434 0.51275,-1.86488 0.85663,-2.73488 0.0715,-0.18075 0.14874,-0.36378 0.22844,-0.53937 0.51037,-1.1335 1.21623,-2.17343 2.10033,-3.0331 0.32866,-0.31961 0.73741,-0.5701 1.1739,-0.73607 0.0192,-0.007 0.0378,-0.0121 0.0571,-0.019 0.5174,-0.18531 1.08856,-0.23286 1.5927,-0.0888 0.70092,0.24492 1.34605,0.63588 1.83382,1.16121 0.34748,0.35631 0.64049,0.8126 0.96451,1.29446 l 1.11045,-0.67895 z"
         style="fill:#a8a8a8;fill-opacity:1;stroke:#000000;stroke-width:0.40610683;stroke-linecap:round;stroke-linejoin:round;stroke-miterlimit:10;stroke-opacity:1" />
      <path
         inkscape:connector-curvature="0"
         id="path5578"
         d="m 490.08413,379.93615 c -0.41783,-0.024 -0.83992,0.0136 -1.2539,0.12109 -0.90943,0.31387 -1.76111,0.83312 -2.44336,1.54883 -0.0622,0.0677 -0.12719,0.13426 -0.18555,0.20313 -0.44047,0.51981 -0.77476,1.07034 -1.10352,1.56835 -0.75086,1.3678 -1.32117,2.82618 -1.7246,4.32618 -0.14056,0.52265 -0.26351,1.04901 -0.36329,1.58007 -0.29743,1.60506 -0.41919,3.22827 -0.4375,4.8418 -0.004,0.35982 -0.005,0.71949 0,1.07813 0.0817,1.49784 0.21218,3.021 0.54688,4.53125 0.062,0.27374 0.13212,0.54774 0.20898,0.81836 0.37381,1.31621 0.92578,2.58743 1.67383,3.75 0.27048,0.3297 0.56598,0.74299 1.00391,1.12304 0.36147,0.28056 0.76758,0.47839 1.18554,0.60938 0.29798,0.0934 0.6037,0.15446 0.90821,0.17773 0.7362,-0.0755 1.4732,-0.34676 2.08789,-0.84375 0.4357,-0.39256 0.73193,-0.81773 1.00195,-1.1543 0.43993,-0.70226 0.81178,-1.4369 1.11719,-2.20117 0.31576,-0.79012 0.56185,-1.61078 0.74219,-2.4375 0.2823,-1.32135 0.40825,-2.65031 0.48242,-3.96679 0.0119,-0.21164 0.0218,-0.42206 0.0312,-0.63282 0.0142,-1.92641 -0.0988,-3.87323 -0.46289,-5.79492 -0.004,-0.0173 -0.004,-0.0393 -0.008,-0.0566 -0.39537,-2.03281 -1.08907,-4.01272 -2.10546,-5.83203 -0.048,-0.0714 -0.0977,-0.14157 -0.14649,-0.21484 l -1.10937,0.67968 c 0.0485,0.0721 0.10024,0.14179 0.15039,0.21485 0.93461,1.66984 1.57247,3.50824 1.93554,5.40039 0.003,0.0162 0.004,0.0345 0.008,0.0508 0.34589,1.80038 0.45424,3.65661 0.44336,5.51953 -0.01,0.20584 -0.0195,0.41022 -0.0312,0.61524 -0.073,1.27528 -0.19262,2.52962 -0.45704,3.74414 -0.15946,0.7494 -0.38146,1.48707 -0.66015,2.19531 -0.26957,0.68507 -0.59349,1.34213 -0.98242,1.96094 -0.31086,0.37217 -0.53444,0.72215 -0.79297,0.92773 -0.3146,0.30367 -0.78113,0.4697 -1.26367,0.5332 -0.19745,-0.0209 -0.38785,-0.0618 -0.57032,-0.12109 -0.25595,-0.0832 -0.49099,-0.20464 -0.67382,-0.375 -0.2563,-0.19506 -0.4839,-0.52784 -0.79297,-0.88867 -0.65945,-1.02131 -1.1413,-2.16303 -1.47071,-3.34961 -0.0678,-0.24398 -0.13088,-0.48875 -0.18554,-0.73633 -0.3129,-1.38513 -0.43617,-2.83044 -0.51953,-4.29492 -0.004,-0.34664 -0.004,-0.68925 0,-1.03516 0.0182,-1.55113 0.13509,-3.09544 0.41796,-4.59961 0.0917,-0.49477 0.20087,-0.98689 0.33008,-1.47265 0.37084,-1.39415 0.89658,-2.74098 1.58789,-3.99805 0.34375,-0.50971 0.6432,-1.00311 0.98828,-1.40234 0.0457,-0.0529 0.093,-0.10292 0.14063,-0.15235 0.49581,-0.54169 1.15915,-0.94061 1.87695,-1.19336 0.52101,-0.14355 1.11106,-0.0942 1.63867,0.10742 0.36559,0.1381 0.70637,0.33549 1.00196,0.58399 0.054,0.0454 0.10752,0.0918 0.1582,0.14062 0.91292,0.88923 1.64586,1.97119 2.16406,3.14649 0.25091,0.56455 0.45071,1.15541 0.63477,1.76367 0.16164,0.53415 0.31153,1.08613 0.45703,1.63867 0.27627,1.2169 0.43029,2.46023 0.52148,3.71094 l 0,1.35547 7.76563,0 0,-1.35547 -6.46094,0 c -0.0965,-1.34954 -0.27006,-2.69819 -0.57031,-4.02344 -0.14534,-0.55951 -0.29062,-1.1273 -0.46289,-1.69336 -0.19618,-0.64458 -0.42026,-1.28282 -0.69727,-1.91601 -0.58201,-1.32094 -1.41012,-2.54418 -2.44922,-3.56055 -0.0717,-0.0687 -0.14697,-0.1316 -0.22265,-0.19531 -0.41369,-0.34829 -0.88073,-0.62417 -1.38281,-0.8125 -0.38942,-0.14497 -0.80288,-0.23191 -1.22071,-0.25586 z"
         style="fill:#a8a8a8;fill-opacity:1;stroke:#000000;stroke-width:0.40610683;stroke-linecap:round;stroke-linejoin:round;stroke-miterlimit:10;stroke-opacity:1" />
    </g>
  </g>
  <g
     inkscape:groupmode="layer"
     id="layer4"
     inkscape:label="Condenser"
     style="display:inline">
    <path
       style="display:inline;opacity:1;fill:url(#linearGradient4163);fill-opacity:1;stroke:#000000;stroke-width:0.71839041;stroke-miterlimit:4;stroke-dasharray:none;stroke-dashoffset:0;stroke-opacity:1"
       d="m 401.58482,571.65792 0,0.0273 -12.64648,0 0,5.07032 12.66992,0 0,0.01 c 5.83953,-0.0257 11.69047,0.006 17.55273,0.0156 11.04409,0.0185 22.08836,0.0427 33.13281,0.0684 11.05157,0.0257 22.10359,0.0527 33.1543,0.0879 3.90897,0.0131 7.8172,0.0257 11.72461,0.043 1.97454,0.009 3.93375,0.0104 5.87891,0.0371 0.64226,-0.11542 1.49192,0.5617 2.1582,1.35156 0.785,1.02796 1.22748,2.41961 1.36719,3.84961 0.0646,1.3824 -0.0878,2.73291 -0.72071,3.5625 -0.40569,0.82302 -1.632,1.31169 -2.81445,1.39648 -32.69802,0.12255 -65.4306,-0.17503 -98.1875,0.33985 -2.78914,0.0924 -5.37995,1.44787 -7.0625,3.7207 -1.51673,2.1771 -2.1987,4.69646 -2.2207,7.10937 -0.0915,2.34096 0.42552,4.82277 1.75586,7.04493 1.30828,2.16338 3.62924,3.63821 6.38867,3.75976 18.73464,0.0629 37.46399,0.0366 56.18945,0.0234 9.4325,-0.007 18.86612,-0.0165 28.29883,-0.0293 4.81103,-0.007 9.62779,-0.004 14.45117,-0.0273 0.47198,-0.15332 1.19224,0.47841 1.6875,1.17187 0.68236,1.03692 0.95554,2.48009 1.03516,3.99414 0.005,1.50402 -0.16832,2.93442 -0.78516,3.95899 -0.41103,0.65753 -1.09925,1.27079 -1.55078,1.13086 -5.80821,0.0625 -11.63055,0.0455 -17.4707,0.0586 -10.60738,0.0237 -21.21759,0.0432 -31.82617,0.0664 -15.9096,0.007 -31.8265,0.0601 -47.75,0.31054 -2.78912,0.0924 -5.37994,1.44788 -7.0625,3.72071 -1.51672,2.17712 -2.20066,4.69646 -2.22266,7.10937 -0.0915,2.34097 0.42551,4.82276 1.75586,7.04492 1.30829,2.16339 3.63118,3.63821 6.39062,3.75977 18.73465,0.0629 37.464,0.0366 56.18946,0.0234 9.4325,-0.007 18.86614,-0.0165 28.29883,-0.0293 4.81107,-0.007 9.62781,-0.004 14.45117,-0.0273 0.47199,-0.15331 1.1903,0.47646 1.68554,1.16992 0.68234,1.0369 0.95748,2.48011 1.03711,3.99414 0.005,1.50404 -0.17024,2.93633 -0.78711,3.96094 -0.411,0.65753 -1.09728,1.27077 -1.54882,1.13086 -5.8082,0.0625 -11.6325,0.0455 -17.47266,0.0586 -10.58681,0.0236 -21.17372,0.0433 -31.76172,0.0664 l 0,-0.0137 c -10.52049,0.0231 -21.04154,0.0474 -31.56445,0.0879 -3.70777,0.0145 -7.41706,0.0307 -11.12891,0.0566 -1.84306,0.0131 -3.72564,0.004 -5.64648,0.0664 -2.88575,0.007 -6.0105,1.02307 -8.39063,3.44922 -1.81242,2.04492 -2.6468,4.71047 -2.41797,7.33399 0.23327,2.65371 1.42525,5.1207 3.32032,6.9375 2.24249,2.08056 5.14739,3.10239 8.01953,3.05859 17.1274,-0.1301 34.26912,-0.0334 51.42383,0.0156 8.93608,0.0256 17.8725,0.0561 26.80859,0.0918 4.58486,0.0184 9.16547,0.0299 13.74023,0.0625 1.77155,0.10333 3.52632,0.50227 4.25586,1.55859 0.73469,0.75581 1.02385,2.10387 0.93555,3.38086 -0.12692,1.40623 -0.78223,2.8247 -1.76172,3.85352 -1.0232,1.10989 -2.60819,1.79407 -4.16211,1.86719 -0.47802,0.0234 -0.99523,0.0271 -1.55078,0.0351 -0.98781,0.0145 -1.97817,0.0223 -2.97461,0.0293 -3.11794,0.0214 -6.24064,0.0272 -9.36523,0.0332 -9.14073,0.0172 -18.28305,0.0112 -27.42774,0.002 -14.67108,-0.0139 -29.34772,-0.0483 -44.02539,-0.0566 l 0,5.10742 c 14.67049,0.008 29.3444,0.0408 44.02149,0.0547 9.14544,0.009 18.29205,0.0161 27.4414,0 3.12632,-0.006 6.25391,-0.0132 9.38672,-0.0352 1.00013,-0.007 2.00702,-0.015 3.01563,-0.0293 0.53416,-0.007 1.10619,-0.0132 1.71679,-0.041 2.82979,-0.13565 5.54918,-1.3403 7.56641,-3.42969 1.77647,-1.87117 2.89286,-4.30555 3.14648,-6.90234 0.27047,-2.49743 -0.42572,-5.13023 -2.1582,-7.23047 -2.25226,-2.39549 -5.2639,-3.37365 -8.02539,-3.30274 -4.59002,-0.0328 -9.17579,-0.046 -13.75586,-0.0645 -8.93796,-0.0358 -17.87447,-0.0664 -26.8125,-0.0918 -17.14522,-0.049 -34.30483,-0.14784 -51.47656,-0.0176 -1.69787,-0.009 -3.43346,-0.56445 -4.50977,-1.66015 -0.98681,-0.94137 -1.65668,-2.31433 -1.75781,-3.6582 -0.0957,-1.25629 0.29469,-2.62434 1.09375,-3.44141 0.91973,-1.19025 2.86125,-1.65723 4.83984,-1.80664 1.79993,-0.0585 3.63999,-0.051 5.51954,-0.0645 3.70251,-0.0257 7.40856,-0.0423 11.11523,-0.0566 10.49646,-0.0403 20.99514,-0.0629 31.49414,-0.0859 l 0,0.0117 c 10.60743,-0.0233 21.21558,-0.0429 31.82422,-0.0664 5.82279,-0.0131 11.66152,0.004 17.51562,-0.0586 2.65821,-0.1735 4.79508,-1.65594 5.90235,-3.74219 1.14253,-2.15496 1.53094,-4.47187 1.42773,-6.60938 -0.0292,-2.16204 -0.55528,-4.44952 -1.79492,-6.53515 -1.1675,-2.0079 -3.3267,-3.4441 -6.00195,-3.58203 -4.80509,0.0233 -9.61605,0.0204 -14.4336,0.0273 -9.43141,0.0131 -18.86328,0.0223 -28.29492,0.0293 -18.72797,0.0131 -37.4513,0.0394 -56.16992,-0.0234 -0.69785,0.11003 -1.59946,-0.56502 -2.12695,-1.36328 -0.72757,-1.09783 -0.98831,-2.63506 -0.98633,-4.21094 0.0733,-1.6 0.43492,-3.15898 1.25586,-4.22656 0.64803,-0.96204 1.9117,-1.61906 3.08008,-1.62305 16.09952,-0.25325 32.21042,-0.30161 48.32812,-0.30859 l 0,-0.002 c 10.3858,-0.0227 20.7712,-0.0411 31.1582,-0.0644 5.8228,-0.0131 11.66153,0.004 17.51563,-0.0586 2.65821,-0.17351 4.79505,-1.65592 5.90234,-3.74219 1.14251,-2.15497 1.53096,-4.47187 1.42774,-6.60938 -0.0292,-2.16201 -0.55528,-4.44952 -1.79493,-6.53515 -1.16748,-2.00791 -3.32672,-3.44214 -6.00195,-3.58008 -4.80509,0.0233 -9.6141,0.0185 -14.43164,0.0254 -9.43141,0.0131 -18.86331,0.0223 -28.29492,0.0293 -18.72799,0.0131 -37.4513,0.0413 -56.16992,-0.0215 -0.69786,0.10989 -1.59947,-0.56698 -2.12696,-1.36523 -0.72758,-1.09783 -0.98829,-2.63509 -0.98632,-4.21094 0.0734,-1.6 0.43297,-3.15897 1.2539,-4.22656 0.64802,-0.96202 1.9117,-1.61905 3.08008,-1.62305 32.69533,-0.51462 65.4298,-0.21663 98.19141,-0.33984 2.60076,-0.0575 5.18769,-1.29429 6.89843,-3.64453 1.3716,-2.17574 1.80674,-4.62444 1.56641,-6.85352 -0.17232,-2.26391 -0.94353,-4.52872 -2.35352,-6.4707 -1.30648,-1.8795 -3.48125,-3.24105 -6.13476,-3.40235 -1.99012,-0.0271 -3.96664,-0.0283 -5.92774,-0.0371 -3.91102,-0.0174 -7.82095,-0.0305 -11.73046,-0.043 -11.05297,-0.0353 -22.10604,-0.0623 -33.15821,-0.0879 -11.04521,-0.0257 -22.09116,-0.05 -33.13672,-0.0684 -5.84974,-0.0102 -11.71164,-0.0416 -17.58398,-0.0156 z"
       id="rect4505-1"
       inkscape:connector-curvature="0"
       sodipodi:nodetypes="cccccccscccccccccccccccccccscccccccccccccccccccccccscccccccccccccccccccccccccccccccccccccccccccccccsccccccccccccccccccsccc" />
  </g>
  <g
     inkscape:groupmode="layer"
     id="layer5"
     inkscape:label="Deshydrator"
     style="display:inline">
    <path
       style="display:inline;opacity:1;fill:url(#linearGradient9718);fill-opacity:1;stroke:#000000;stroke-width:0.69999999;stroke-miterlimit:4;stroke-dasharray:none;stroke-dashoffset:0;stroke-opacity:1"
       d="m 378.28534,678.33757 0,5.29102 -4.71289,0 0,5.13086 4.71289,0 0,5.29102 29.84961,0 0,-5.29102 4.71484,0 0,-5.13086 -4.71484,0 0,-5.29102 -29.84961,0 z"
       id="rect4362"
       inkscape:connector-curvature="0" />
  </g>
  <g
     inkscape:groupmode="layer"
     id="layer6"
     inkscape:label="Compressor"
     style="display:inline">
    <g
       style="display:inline"
       id="g10015"
       transform="translate(-38.675516,317.25437)">
      <circle
         r="19.174397"
         cy="256.94165"
         cx="408.84903"
         id="path4137-4"
         style="opacity:1;fill:#e3dedb;fill-opacity:1;stroke:#000000;stroke-width:1.02263451;stroke-miterlimit:4;stroke-dasharray:none;stroke-dashoffset:0;stroke-opacity:1" />
      <path
         inkscape:connector-curvature="0"
         id="rect4500"
         d="m 397.589,242.42471 -0.25814,0.12515 0,28.60497 0.25814,0.12515 29.75785,-14.42762 -29.75785,-14.42765 z"
         style="opacity:1;fill:url(#linearGradient9775);fill-opacity:1;stroke:#000000;stroke-width:0.77614892;stroke-miterlimit:4;stroke-dasharray:none;stroke-dashoffset:0;stroke-opacity:1" />
    </g>
  </g>
  <g
     inkscape:groupmode="layer"
     id="layer11"
     inkscape:label="Compressor 1"
     style="display:none">
    <g
       style="display:inline"
       id="g11115">
      <circle
         r="19.174397"
         cy="628.16437"
         cx="587.06708"
         id="path4137"
         style="display:inline;opacity:1;fill:url(#radialGradient9726);fill-opacity:1;stroke:#000000;stroke-width:1.02263451;stroke-miterlimit:4;stroke-dasharray:none;stroke-dashoffset:0;stroke-opacity:1"
         transform="translate(0,-308.26772)" />
      <path
         transform="matrix(0.46190906,0,0,0.51569603,357.93363,174.53557)"
         d="m 494.46967,281.44461 c 1.06359,1.01295 -0.8407,1.93346 -1.68359,1.76777 -2.28419,-0.44902 -2.72039,-3.35012 -1.85195,-5.13495 1.55344,-3.19264 5.77805,-3.66525 8.5863,-1.93612 4.12122,2.53757 4.63717,8.23858 2.0203,12.03765 -3.48788,5.06357 -10.71062,5.62056 -15.489,2.10448 -6.01311,-4.42462 -6.60986,-13.18815 -2.18866,-18.94036 5.35466,-6.96669 15.66877,-7.60258 22.39171,-2.27284 7.92276,6.28093 8.59747,18.15131 2.35702,25.84307 -7.20485,8.88045 -20.63513,9.59378 -29.29443,2.4412 -9.83924,-8.12722 -10.59109,-23.11985 -2.52537,-32.74578 9.04852,-10.79883 25.60523,-11.58914 36.19713,-2.60955 11.75902,9.96904 12.58773,28.09111 2.69373,39.64849"
         sodipodi:t0="0"
         sodipodi:argument="-18.088543"
         sodipodi:radius="29.294424"
         sodipodi:revolution="3"
         sodipodi:expansion="1"
         sodipodi:cy="281.44461"
         sodipodi:cx="494.46967"
         id="path4155"
         style="display:inline;fill:none;fill-rule:evenodd;stroke:#000000;stroke-width:3.8683598;stroke-linecap:butt;stroke-linejoin:miter;stroke-miterlimit:4;stroke-dasharray:none;stroke-opacity:1"
         sodipodi:type="spiral" />
    </g>
  </g>
  <g
     inkscape:groupmode="layer"
     id="layer12"
     inkscape:label="HeadCircuit"
     style="display:inline">
    <path
       style="opacity:1;fill:url(#linearGradient10798);fill-opacity:1;stroke:#000000;stroke-width:0.30166093;stroke-miterlimit:4;stroke-dasharray:none;stroke-dashoffset:0;stroke-opacity:1"
       d="m 470.94834,544.90858 0,8.72465 0.22528,0 0,29.55951 -9.84623,0 0,93.23032 9.84623,0 0,29.40322 -0.026,0 0,8.72465 0.026,0 0,0.0918 6.84408,0 0,-0.0918 126.2278,0 0,-0.17974 0.46894,0 0,-41.2399 -6.97894,0 0,32.69499 -119.7178,0 0,-29.40322 9.84622,0 0,-93.23032 -9.84622,0 0,-29.55951 119.15691,0 0,32.85323 6.97894,0 0,-41.24187 -0.10727,0 0,-0.33601 -133.09794,0 z"
       id="rect10024"
       inkscape:connector-curvature="0" />
    <path
       style="opacity:1;fill:url(#linearGradient10798-1);fill-opacity:1;stroke:#000000;stroke-width:0.30166093;stroke-miterlimit:4;stroke-dasharray:none;stroke-dashoffset:0;stroke-opacity:1"
       d="m 228.57505,545.65597 0,0.0918 -126.22851,0 0,0.17969 -0.46875,0 0,40.01758 -0.0156,0 0,25.50781 6.94531,0 0,-24.28515 0.0488,0 0,-32.69532 119.71875,0 0,29.40235 -9.8457,0 0,93.23047 9.8457,0 0,29.56054 -119.1582,0 0,-32.39257 0.0469,0 0,-18.03516 -6.96289,0 0,17.57422 -0.0625,0 0,41.24219 0.10742,0 0,0.33593 133.09766,0 0,-8.72461 -0.22461,0 0,-29.56054 9.84571,0 0,-93.23047 -9.84571,0 0,-29.40235 0.0254,0 0,-8.72461 -0.0254,0 0,-0.0918 -6.84375,0 z"
       id="rect10024-8"
       inkscape:connector-curvature="0" />
    <path
       style="opacity:1;fill:#ffffff;fill-opacity:1;stroke:#000000;stroke-width:0;stroke-miterlimit:4;stroke-dasharray:none;stroke-dashoffset:0;stroke-opacity:1"
       d="m 545.93388,706.0658 -0.0768,0.0963 0,2.01589 -18.96383,0 0,4.25493 18.96383,0 0,2.01589 0.0768,0.0963 3.38029,-4.23907 -3.38029,-4.24013 z"
       id="rect10857"
       inkscape:connector-curvature="0" />
    <path
       style="opacity:1;fill:#ffffff;fill-opacity:1;stroke:#000000;stroke-width:0;stroke-miterlimit:4;stroke-dasharray:none;stroke-dashoffset:0;stroke-opacity:1"
       d="m 532.66429,553.75303 0.0767,-0.10185 0,-2.13099 18.95455,0 0,-4.49789 -18.95455,0 0,-2.13098 -0.0767,-0.10186 -3.37863,4.48113 3.37863,4.48223 z"
       id="rect10857-5"
       inkscape:connector-curvature="0" />
    <path
       style="opacity:1;fill:#ffffff;fill-opacity:1;stroke:#000000;stroke-width:0;stroke-miterlimit:4;stroke-dasharray:none;stroke-dashoffset:0;stroke-opacity:1"
       d="m 175.73086,707.34388 -0.0768,0.0963 0,2.01589 -18.96383,0 0,4.25493 18.96383,0 0,2.01589 0.0768,0.0963 3.38029,-4.23907 -3.38029,-4.24013 z"
       id="rect10857-7"
       inkscape:connector-curvature="0" />
    <path
       style="opacity:1;fill:#ffffff;fill-opacity:1;stroke:#000000;stroke-width:0;stroke-miterlimit:4;stroke-dasharray:none;stroke-dashoffset:0;stroke-opacity:1"
       d="m 157.04392,554.44091 0.0767,-0.10185 0,-2.13099 18.95455,0 0,-4.49789 -18.95455,0 0,-2.13098 -0.0767,-0.10186 -3.37863,4.48113 3.37863,4.48223 z"
       id="rect10857-5-4"
       inkscape:connector-curvature="0" />
  </g>
  <g
     inkscape:groupmode="layer"
     id="layer13"
     inkscape:label="House"
     style="display:inline">
    <path
       style="display:inline;opacity:1;fill:#ddcec4;fill-opacity:1;stroke:#000000;stroke-width:0.42928663;stroke-miterlimit:4;stroke-dasharray:none;stroke-dashoffset:0;stroke-opacity:1"
       d="m 601.01667,582.71527 -36.95591,43.38349 73.91322,0 -36.95731,-43.38349 z m -30.61428,43.57366 0,48.58769 61.23135,0 0,-48.58769 -61.23135,0 z"
       id="rect10764"
       inkscape:connector-curvature="0" />
  </g>
  <g
     inkscape:groupmode="layer"
     id="layer7"
     inkscape:label="Point"
     style="display:inline">
    <text
       xml:space="preserve"
       style="font-style:normal;font-weight:normal;font-size:12.5px;line-height:125%;font-family:sans-serif;letter-spacing:0px;word-spacing:0px;display:inline;fill:#000000;fill-opacity:1;stroke:none;stroke-width:1px;stroke-linecap:butt;stroke-linejoin:miter;stroke-opacity:1"
       x="362.22818"
       y="603.99487"
       id="text9761"
       sodipodi:linespacing="125%"><tspan
         sodipodi:role="line"
         id="tspan9763"
         x="362.22818"
         y="603.99487"
         style="font-size:11.25px">T1</tspan></text>
    <text
       xml:space="preserve"
       style="font-style:normal;font-weight:normal;font-size:12.5px;line-height:125%;font-family:sans-serif;letter-spacing:0px;word-spacing:0px;display:inline;fill:#000000;fill-opacity:1;stroke:none;stroke-width:1px;stroke-linecap:butt;stroke-linejoin:miter;stroke-opacity:1"
       x="391.22849"
       y="567.94946"
       id="text9761-9"
       sodipodi:linespacing="125%"><tspan
         sodipodi:role="line"
         id="tspan9763-0"
         x="391.22849"
         y="567.94946"
         style="font-size:11.25px">T2</tspan></text>
    <circle
       style="display:inline;opacity:1;fill:#ffff00;fill-opacity:1;stroke:#000000;stroke-width:0.67699999;stroke-miterlimit:4;stroke-dasharray:none;stroke-dashoffset:0;stroke-opacity:1"
       id="path9765"
       cx="369.88583"
       cy="573.19019"
       r="3.5355339" />
    <circle
       style="display:inline;opacity:1;fill:#ffff00;fill-opacity:1;stroke:#000000;stroke-width:0.67699999;stroke-miterlimit:4;stroke-dasharray:none;stroke-dashoffset:0;stroke-opacity:1"
       id="path9765-4"
       cx="343.92856"
       cy="573.38019"
       r="3.5355339" />
    <circle
       style="display:inline;opacity:1;fill:#ffff00;fill-opacity:1;stroke:#000000;stroke-width:0.67699999;stroke-miterlimit:4;stroke-dasharray:none;stroke-dashoffset:0;stroke-opacity:1"
       id="path9765-4-3"
       cx="392.14285"
       cy="574.09448"
       r="3.5355339" />
    <circle
       style="display:inline;opacity:1;fill:#ffff00;fill-opacity:1;stroke:#000000;stroke-width:0.67699999;stroke-miterlimit:4;stroke-dasharray:none;stroke-dashoffset:0;stroke-opacity:1"
       id="path9765-4-3-6"
       cx="417.66092"
       cy="605.77008"
       r="3.5355339" />
    <circle
       style="display:inline;opacity:1;fill:#ffff00;fill-opacity:1;stroke:#000000;stroke-width:0.67699999;stroke-miterlimit:4;stroke-dasharray:none;stroke-dashoffset:0;stroke-opacity:1"
       id="path9765-4-3-6-3"
       cx="418.16599"
       cy="654.25745"
       r="3.5355339" />
    <circle
       style="display:inline;opacity:1;fill:#ffff00;fill-opacity:1;stroke:#000000;stroke-width:0.67699999;stroke-miterlimit:4;stroke-dasharray:none;stroke-dashoffset:0;stroke-opacity:1"
       id="path9765-4-3-6-3-9"
       cx="367.91086"
       cy="686.58228"
       r="3.5355339" />
    <circle
       style="display:inline;opacity:1;fill:#ffff00;fill-opacity:1;stroke:#000000;stroke-width:0.67699999;stroke-miterlimit:4;stroke-dasharray:none;stroke-dashoffset:0;stroke-opacity:1"
       id="path9765-4-3-6-3-9-1"
       cx="311.59488"
       cy="686.32971"
       r="3.5355339" />
    <circle
       style="display:inline;opacity:1;fill:#ffff00;fill-opacity:1;stroke:#000000;stroke-width:0.67699999;stroke-miterlimit:4;stroke-dasharray:none;stroke-dashoffset:0;stroke-opacity:1"
       id="path9765-4-3-6-3-9-1-0"
       cx="266.89563"
       cy="606.27515"
       r="3.5355339" />
    <text
       xml:space="preserve"
       style="font-style:normal;font-weight:normal;font-size:12.5px;line-height:125%;font-family:sans-serif;letter-spacing:0px;word-spacing:0px;display:inline;fill:#000000;fill-opacity:1;stroke:none;stroke-width:1px;stroke-linecap:butt;stroke-linejoin:miter;stroke-opacity:1"
       x="419.76529"
       y="602.04205"
       id="text9761-5"
       sodipodi:linespacing="125%"><tspan
         sodipodi:role="line"
         id="tspan9763-6"
         x="419.76529"
         y="602.04205"
         style="font-size:11.25px">T3</tspan></text>
    <text
       xml:space="preserve"
       style="font-style:normal;font-weight:normal;font-size:12.5px;line-height:125%;font-family:sans-serif;letter-spacing:0px;word-spacing:0px;display:inline;fill:#000000;fill-opacity:1;stroke:none;stroke-width:1px;stroke-linecap:butt;stroke-linejoin:miter;stroke-opacity:1"
       x="420.01779"
       y="650.52936"
       id="text9761-0"
       sodipodi:linespacing="125%"><tspan
         sodipodi:role="line"
         id="tspan9763-05"
         x="420.01779"
         y="650.52936"
         style="font-size:11.25px">T4</tspan></text>
    <text
       xml:space="preserve"
       style="font-style:normal;font-weight:normal;font-size:12.5px;line-height:125%;font-family:sans-serif;letter-spacing:0px;word-spacing:0px;display:inline;fill:#000000;fill-opacity:1;stroke:none;stroke-width:1px;stroke-linecap:butt;stroke-linejoin:miter;stroke-opacity:1"
       x="363.49857"
       y="702.55225"
       id="text9761-0-1"
       sodipodi:linespacing="125%"><tspan
         sodipodi:role="line"
         id="tspan9763-05-0"
         x="363.49857"
         y="702.55225"
         style="font-size:11.25px">T5</tspan></text>
    <text
       xml:space="preserve"
       style="font-style:normal;font-weight:normal;font-size:12.5px;line-height:125%;font-family:sans-serif;letter-spacing:0px;word-spacing:0px;display:inline;fill:#000000;fill-opacity:1;stroke:none;stroke-width:1px;stroke-linecap:butt;stroke-linejoin:miter;stroke-opacity:1"
       x="304.32785"
       y="701.96753"
       id="text9761-0-1-1"
       sodipodi:linespacing="125%"><tspan
         sodipodi:role="line"
         id="tspan9763-05-0-7"
         x="304.32785"
         y="701.96753"
         style="font-size:11.25px">T6</tspan></text>
    <text
       xml:space="preserve"
       style="font-style:normal;font-weight:normal;font-size:12.5px;line-height:125%;font-family:sans-serif;letter-spacing:0px;word-spacing:0px;display:inline;fill:#000000;fill-opacity:1;stroke:none;stroke-width:1px;stroke-linecap:butt;stroke-linejoin:miter;stroke-opacity:1"
       x="266.95224"
       y="602.46747"
       id="text9761-0-1-0"
       sodipodi:linespacing="125%"><tspan
         sodipodi:role="line"
         id="tspan9763-05-0-8"
         x="266.95224"
         y="602.46747"
         style="font-size:11.25px">T7</tspan></text>
    <text
       xml:space="preserve"
       style="font-style:normal;font-weight:normal;font-size:12.5px;line-height:125%;font-family:sans-serif;letter-spacing:0px;word-spacing:0px;display:inline;fill:#000000;fill-opacity:1;stroke:none;stroke-width:1px;stroke-linecap:butt;stroke-linejoin:miter;stroke-opacity:1"
       x="324.53091"
       y="566.85962"
       id="text9761-0-1-3"
       sodipodi:linespacing="125%"><tspan
         sodipodi:role="line"
         id="tspan9763-05-0-6"
         x="324.53091"
         y="566.85962"
         style="font-size:11.25px">T8</tspan></text>
    <circle
       style="display:inline;opacity:1;fill:#ffff00;fill-opacity:1;stroke:#000000;stroke-width:0.67699999;stroke-miterlimit:4;stroke-dasharray:none;stroke-dashoffset:0;stroke-opacity:1"
       id="path9765-4-3-6-9"
       cx="475.19626"
       cy="549.65277"
       r="3.5355339" />
    <circle
       style="display:inline;opacity:1;fill:#ffff00;fill-opacity:1;stroke:#000000;stroke-width:0.67699999;stroke-miterlimit:4;stroke-dasharray:none;stroke-dashoffset:0;stroke-opacity:1"
       id="path9765-4-3-6-9-9"
       cx="474.83914"
       cy="710.22681"
       r="3.5355339" />
    <circle
       style="display:inline;opacity:1;fill:#ffff00;fill-opacity:1;stroke:#000000;stroke-width:0.67699999;stroke-miterlimit:4;stroke-dasharray:none;stroke-dashoffset:0;stroke-opacity:1"
       id="path9765-4-3-6-9-3"
       cx="231.68823"
       cy="550.00995"
       r="3.5355339" />
    <circle
       style="display:inline;opacity:1;fill:#ffff00;fill-opacity:1;stroke:#000000;stroke-width:0.67699999;stroke-miterlimit:4;stroke-dasharray:none;stroke-dashoffset:0;stroke-opacity:1"
       id="path9765-4-3-6-9-9-6"
       cx="231.33109"
       cy="710.01758"
       r="3.5355339" />
    <text
       xml:space="preserve"
       style="font-style:normal;font-weight:normal;font-size:12.5px;line-height:125%;font-family:sans-serif;letter-spacing:0px;word-spacing:0px;display:inline;fill:#000000;fill-opacity:1;stroke:none;stroke-width:1px;stroke-linecap:butt;stroke-linejoin:miter;stroke-opacity:1"
       x="470.70486"
       y="538.98358"
       id="text9761-9-5"
       sodipodi:linespacing="125%"><tspan
         sodipodi:role="line"
         id="tspan9763-0-4"
         x="470.70486"
         y="538.98358"
         style="font-size:11.25px">TMi</tspan></text>
    <text
       xml:space="preserve"
       style="font-style:normal;font-weight:normal;font-size:12.5px;line-height:125%;font-family:sans-serif;letter-spacing:0px;word-spacing:0px;display:inline;fill:#000000;fill-opacity:1;stroke:none;stroke-width:1px;stroke-linecap:butt;stroke-linejoin:miter;stroke-opacity:1"
       x="464.6149"
       y="726.58246"
       id="text9761-9-5-6"
       sodipodi:linespacing="125%"><tspan
         sodipodi:role="line"
         id="tspan9763-0-4-4"
         x="464.6149"
         y="726.58246"
         style="font-size:11.25px">TMo</tspan></text>
    <text
       xml:space="preserve"
       style="font-style:normal;font-weight:normal;font-size:12.5px;line-height:125%;font-family:sans-serif;letter-spacing:0px;word-spacing:0px;display:inline;fill:#000000;fill-opacity:1;stroke:none;stroke-width:1px;stroke-linecap:butt;stroke-linejoin:miter;stroke-opacity:1"
       x="227.87366"
       y="728.82977"
       id="text9761-9-5-6-6"
       sodipodi:linespacing="125%"><tspan
         sodipodi:role="line"
         id="tspan9763-0-4-4-9"
         x="227.87366"
         y="728.82977"
         style="font-size:11.25px">TCi</tspan></text>
    <text
       xml:space="preserve"
       style="font-style:normal;font-weight:normal;font-size:12.5px;line-height:125%;font-family:sans-serif;letter-spacing:0px;word-spacing:0px;display:inline;fill:#000000;fill-opacity:1;stroke:none;stroke-width:1px;stroke-linecap:butt;stroke-linejoin:miter;stroke-opacity:1"
       x="231.2464"
       y="539.01367"
       id="text9761-9-5-6-1"
       sodipodi:linespacing="125%"><tspan
         sodipodi:role="line"
         id="tspan9763-0-4-4-0"
         x="231.2464"
         y="539.01367"
         style="font-size:11.25px">TCo</tspan></text>
  </g>
  <g
     inkscape:groupmode="layer"
     id="layer14"
     inkscape:label="SourceHeat"
     style="display:inline">
    <path
       style="display:inline;opacity:1;fill:#335e33;fill-opacity:0.35436892;stroke:#000000;stroke-width:0;stroke-miterlimit:4;stroke-dasharray:none;stroke-dashoffset:0;stroke-opacity:1"
       d="m 61.608624,605.81692 -0.17872,0.17585 -2.09937,-0.10738 -52.2842996,51.44153 7.0006196,0.35808 0.13249,-0.13036 89.444626,4.57504 43.60696,-42.90404 -46.04139,-2.35499 2.68085,-2.63761 c -0.79118,-0.0409 -1.58287,-0.082 -2.37413,-0.12288 -6.419716,-0.33161 -12.839716,-0.66232 -19.265926,-0.98475 -2.1967,-0.11014 -4.39183,-0.21961 -6.58936,-0.32416 -0.70234,-0.0334 -1.40146,-0.0662 -2.10024,-0.0967 -0.39303,-0.0172 -0.75799,-0.0345 -1.10204,-0.0435 -1.11731,-0.0304 -2.47163,0.15093 -3.58342,0.50095 -1.05235,0.32334 -2.01485,0.79414 -2.60206,1.27965 -0.51433,0.44183 -0.78907,0.92172 -0.54076,1.21149 0.13825,0.39433 1.22894,0.59637 2.43663,0.69601 3.20154,0.17575 6.41507,0.34426 9.62881,0.51538 6.26375,0.33343 12.52893,0.66576 18.79625,0.99569 12.031486,0.63336 24.037166,1.2829 36.112906,1.85285 2.0328,0.088 3.71069,0.5484 4.54879,1.35399 0.68753,0.70122 0.65102,1.60378 -0.12508,2.53696 -0.76854,0.92249 -2.29743,1.82113 -4.2947,2.46865 -2.53105,0.75998 -5.08583,1.00182 -7.11549,0.90096 -1.37082,-0.0476 -2.69048,-0.11792 -3.98939,-0.1798 -2.61625,-0.1243 -5.22758,-0.2519 -7.83683,-0.38012 -7.40525,-0.36393 -14.803646,-0.73355 -22.201026,-1.10343 l 0.005,-0.004 c -7.44482,-0.37232 -14.88733,-0.74586 -22.3315,-1.11795 -4.10654,-0.20526 -8.19185,-0.42046 -12.29344,-0.60737 -0.26757,-0.065 -0.96554,0.12385 -1.48711,0.33822 -0.79617,0.3349 -1.42722,0.82762 -1.95648,1.35193 -0.48033,0.53047 -0.79837,1.04319 -0.68638,1.42904 0.10223,0.25945 0.38383,0.50509 0.76965,0.4686 3.39599,0.16519 6.77844,0.3393 10.16001,0.50971 6.6297,0.33441 13.25852,0.67 19.88604,1.00644 13.15671,0.66812 26.321236,1.33183 39.457486,2.02679 1.89508,0.14149 3.00399,0.73898 3.15663,1.5399 0.14729,0.82219 -0.36872,1.70556 -1.26213,2.51809 -0.87011,0.84007 -2.24223,1.69336 -4.07864,2.39756 -1.98681,0.73162 -4.28705,1.11101 -6.2788,1.04299 -11.27285,-0.48499 -22.471206,-1.03896 -33.648336,-1.60772 l -5.8e-4,4.8e-4 c -7.4593,-0.37301 -14.91758,-0.74741 -22.37616,-1.12024 -4.10653,-0.20528 -8.19051,-0.42041 -12.29209,-0.60731 -0.26757,-0.0649 -0.96699,0.12351 -1.48849,0.33812 -0.79617,0.33489 -1.42586,0.82769 -1.95512,1.352 -0.48034,0.53051 -0.79972,1.04311 -0.68774,1.42898 0.10223,0.25946 0.3852,0.50517 0.771,0.4687 3.39599,0.16517 6.77844,0.33925 10.16001,0.50965 6.6297,0.33444 13.25853,0.67001 19.88604,1.00645 13.15673,0.66815 26.32125,1.33186 39.457486,2.0268 1.89508,0.1415 3.00263,0.73895 3.15527,1.53983 0.14729,0.82222 -0.36873,1.70557 -1.26213,2.51807 -0.8701,0.84009 -2.24087,1.69344 -4.07729,2.39766 -1.98679,0.73159 -4.28704,1.11101 -6.27879,1.043 -23.189576,-0.99737 -46.075436,-2.27665 -69.084676,-3.40865 -0.86054,-0.0129 -1.89382,0.11279 -2.47028,0.38504 -0.73832,0.26637 -1.32414,0.73177 -1.76833,1.21585 -0.40836,0.50336 -0.59108,1.00422 -0.40386,1.39065 0.18821,0.29919 0.54509,0.56587 1.03709,0.54871 1.35665,0.0793 2.73295,0.15008 4.11661,0.22414 2.73827,0.14642 5.47881,0.29135 8.21987,0.43614 7.74911,0.40932 15.50118,0.81559 23.25426,1.22159 7.7481,0.40575 15.49719,0.8109 23.24762,1.21411 4.11403,0.21395 8.2121,0.43523 12.322706,0.63599 l -0.003,0.003 6.97626,0.35684 -1.79551,1.76656 -6.96001,-0.356 -0.01,0.009 c -4.133626,-0.20188 -8.239196,-0.42346 -12.344296,-0.63707 -7.75146,-0.40326 -15.50172,-0.80848 -23.25033,-1.21426 -7.75351,-0.40602 -15.50631,-0.81228 -23.25696,-1.2217 -2.74147,-0.1448 -5.48312,-0.28981 -8.22394,-0.43637 -1.37422,-0.0735 -2.76226,-0.1449 -4.15045,-0.22587 -1.80658,-0.15153 -2.853,-0.70392 -3.10491,-1.40584 -0.30246,-0.7274 -0.0412,-1.54479 0.63965,-2.33991 0.62074,-0.78546 1.79405,-1.62324 3.52803,-2.33218 2.03401,-0.75756 4.28912,-1.09515 6.13615,-1.02174 23.05417,1.13402 45.93978,2.41348 69.086026,3.40873 0.82204,0.0406 1.94192,-0.14294 2.7378,-0.45492 0.95473,-0.34254 1.75968,-0.87258 2.37788,-1.42753 0.55956,-0.54908 0.92103,-1.09456 0.79886,-1.50329 -0.0877,-0.29711 -0.48085,-0.56485 -1.00994,-0.55159 -13.125036,-0.69437 -26.285466,-1.35789 -39.443956,-2.02611 -6.62689,-0.3364 -13.25453,-0.67192 -19.88333,-1.00631 -3.38612,-0.17063 -6.76333,-0.34447 -10.14647,-0.50899 -1.83013,-0.14418 -2.83787,-0.72178 -2.94668,-1.46345 -0.13196,-0.77134 0.30834,-1.58784 1.05359,-2.34232 0.68461,-0.74861 1.77789,-1.54168 3.34363,-2.25161 1.51666,-0.68726 3.54306,-1.12719 5.47155,-1.09215 4.13416,0.18818 8.22895,0.40419 12.32321,0.60888 7.30364,0.3651 14.60453,0.73173 21.90714,1.09698 l 5.7e-4,-5e-4 c 11.32294,0.57661 22.655586,1.13811 34.052976,1.62824 0.82203,0.0406 1.9419,-0.14295 2.73779,-0.45492 0.95474,-0.34254 1.76105,-0.8725 2.37925,-1.42743 0.55956,-0.54912 0.92104,-1.09458 0.79886,-1.50329 -0.0876,-0.29719 -0.48086,-0.56489 -1.00995,-0.55162 -13.12511,-0.69447 -26.285546,-1.35802 -39.444036,-2.02624 -6.62689,-0.3364 -13.25453,-0.67194 -19.88333,-1.0063 -3.38613,-0.17066 -6.76467,-0.34452 -10.14783,-0.50907 -1.83012,-0.14416 -2.83786,-0.72178 -2.94667,-1.46345 -0.13197,-0.77133 0.30832,-1.58782 1.05359,-2.34231 0.6846,-0.74861 1.77788,-1.54169 3.34362,-2.25162 1.51666,-0.68726 3.54307,-1.12721 5.47155,-1.09216 4.13416,0.1882 8.22894,0.40421 12.32322,0.60889 7.45948,0.37289 14.91767,0.74729 22.37616,1.12026 l -0.005,0.004 c 7.382226,0.3692 14.763656,0.7385 22.150266,1.10155 2.60848,0.12819 5.21634,0.25557 7.82598,0.3796 1.32494,0.0628 2.61579,0.13168 3.90073,0.17592 1.44263,0.0191 2.97161,-0.0744 4.03917,-0.45618 0.85063,-0.25604 1.60969,-0.71842 1.98745,-1.15965 0.40495,-0.47197 0.41979,-0.97474 0.0601,-1.33825 -0.36784,-0.4205 -1.39006,-0.67632 -2.5794,-0.74045 -12.10693,-0.5715 -24.12398,-1.22237 -36.148756,-1.8554 -6.26871,-0.33002 -12.53466,-0.66159 -18.79966,-0.99517 -3.21036,-0.17093 -6.42671,-0.34026 -9.63895,-0.51659 -1.96468,-0.0745 -3.73247,-0.52404 -4.4659,-1.43975 -0.47291,-0.79414 -0.0298,-1.73641 1.04478,-2.59703 1.09789,-0.89584 2.74473,-1.70414 4.65521,-2.29238 2.15689,-0.65567 4.49298,-0.97749 6.52857,-0.9231 0.43889,0.012 0.84287,0.0307 1.22051,0.0474 0.71346,0.0312 1.4224,0.0646 2.12732,0.0981 2.20797,0.10508 4.40769,0.21478 6.60561,0.32499 6.43227,0.3227 12.85518,0.65355 19.275396,0.98523 0.79075,0.0409 1.58078,0.0818 2.37141,0.12273 l 4.23414,-4.16583 -48.304516,-2.47074 z"
       id="rect11077"
       inkscape:connector-curvature="0" />
  </g>
</svg>
